<?xml version="1.0" standalone="no"?>
<!DOCTYPE svg PUBLIC "-//W3C//DTD SVG 20010904//EN"
 "http://www.w3.org/TR/2001/REC-SVG-20010904/DTD/svg10.dtd">
<svg version="1.0" xmlns="http://www.w3.org/2000/svg"
 width="200.000000pt" height="200.000000pt" viewBox="0 0 200.000000 200.000000"
 preserveAspectRatio="xMidYMid meet">

<g transform="translate(0.000000,200.000000) scale(0.100000,-0.100000)"
fill="#000000" stroke="none">
<path d="M0 1000 l0 -1000 1000 0 1000 0 0 1000 0 1000 -1000 0 -1000 0 0
-1000z m1264 271 c43 -17 36 -86 -11 -97 -57 -15 -98 58 -51 90 26 19 29 19
62 7z m-981 -13 c15 -12 17 -40 18 -267 1 -234 -1 -256 -17 -268 -23 -17 -36
-16 -60 1 -18 13 -19 30 -22 256 -3 207 -1 245 13 266 17 26 42 31 68 12z
m368 -180 c73 -41 106 -145 77 -241 -46 -154 -280 -169 -353 -23 -33 65 -33
126 0 192 48 97 173 130 276 72z m217 -6 c3 -20 3 -20 37 3 69 46 157 38 199
-18 19 -25 21 -45 24 -175 3 -130 2 -148 -14 -159 -25 -18 -41 -16 -64 7 -18
18 -20 33 -20 145 0 122 -1 125 -25 141 -34 22 -90 11 -112 -23 -13 -19 -18
-55 -21 -145 -4 -106 -7 -120 -25 -129 -14 -8 -26 -8 -43 0 -24 11 -24 11 -24
191 0 178 0 181 23 189 30 11 61 -2 65 -27z m410 10 c15 -19 17 -314 2 -341
-13 -25 -35 -32 -65 -21 l-25 10 0 174 c0 167 1 176 21 190 23 16 47 12 67
-12z m165 -44 l56 -63 56 63 c57 62 87 76 113 50 21 -21 13 -40 -48 -109 l-60
-67 65 -71 c36 -39 65 -76 65 -81 0 -13 -37 -50 -50 -50 -5 0 -39 30 -75 68
l-66 67 -57 -61 c-31 -33 -65 -63 -75 -67 -18 -7 -57 23 -57 43 0 6 30 42 66
81 l65 69 -60 68 c-62 67 -71 88 -49 110 26 26 56 12 111 -50z"/>
<path d="M494 1015 c-54 -37 -59 -159 -10 -202 36 -31 86 -30 123 1 26 22 28
30 28 96 0 66 -2 74 -28 96 -32 27 -82 32 -113 9z"/>
</g>
</svg>
